<svg width="32" height="26" viewBox="0 0 32 26" fill="none" xmlns="http://www.w3.org/2000/svg">
<path opacity="0.4" d="M16.895 3.19165H4.79998C3.03498 3.19165 1.59998 4.6218 1.59998 6.38084V17.0696L2.55998 16.1128C3.57498 15.1013 5.21998 15.1013 6.23498 16.1128C6.89998 16.7706 7.12998 17.6925 6.92998 18.5396H12.8C14.235 18.5396 15.4 19.7007 15.4 21.1308C15.4 21.5644 15.295 21.968 15.105 22.3268H27.2C28.965 22.3268 30.4 20.8966 30.4 19.1376V8.44883L29.44 9.40559C28.425 10.4172 26.78 10.4172 25.765 9.40559C25.1 8.74782 24.87 7.82594 25.07 6.97881H19.2C17.765 6.97881 16.6 5.81775 16.6 4.3876C16.6 3.95407 16.705 3.55043 16.895 3.19165ZM4.79998 9.57003V6.38084H7.99998C7.99998 8.13988 6.56498 9.57003 4.79998 9.57003ZM24 19.1376C24 17.3786 25.435 15.9484 27.2 15.9484V19.1376H24ZM11.2 12.7592C11.2 11.4905 11.7057 10.2737 12.6059 9.37657C13.506 8.47944 14.7269 7.97543 16 7.97543C17.273 7.97543 18.4939 8.47944 19.3941 9.37657C20.2943 10.2737 20.8 11.4905 20.8 12.7592C20.8 14.028 20.2943 15.2447 19.3941 16.1419C18.4939 17.039 17.273 17.543 16 17.543C14.7269 17.543 13.506 17.039 12.6059 16.1419C11.7057 15.2447 11.2 14.028 11.2 12.7592Z" fill="white"/>
<path d="M27.905 3.19168H19.2C18.535 3.19168 18 3.72487 18 4.38763C18 5.05038 18.535 5.58357 19.2 5.58357H27.905L26.755 6.72969C26.285 7.1981 26.285 7.95553 26.755 8.41896C27.225 8.88239 27.985 8.88737 28.45 8.41896L31.65 5.22977C31.875 5.00553 32 4.70156 32 4.38264C32 4.06372 31.875 3.75976 31.65 3.53552L28.45 0.351309C27.98 -0.117103 27.22 -0.117103 26.755 0.351309C26.29 0.819721 26.285 1.57715 26.755 2.04058L27.905 3.1867V3.19168ZM4.095 19.9349L5.245 18.7888C5.715 18.3204 5.715 17.563 5.245 17.0995C4.775 16.6361 4.015 16.6311 3.55 17.0995L0.35 20.2837C0.125 20.508 0 20.812 0 21.1309C0 21.4498 0.125 21.7538 0.35 21.978L3.55 25.1672C4.02 25.6356 4.78 25.6356 5.245 25.1672C5.71 24.6988 5.715 23.9413 5.245 23.4779L4.095 22.3318L12.8 22.3268C13.465 22.3268 14 21.7936 14 21.1309C14 20.4681 13.465 19.9349 12.8 19.9349H4.095Z" fill="white"/>
</svg>
