<svg width="73" height="51" viewBox="0 0 73 51" fill="none" xmlns="http://www.w3.org/2000/svg">
<g clip-path="url(#clip0_1302_217)">
<path d="M45.1113 26.8087L33.8197 15.5393C33.6925 15.412 33.5414 15.3111 33.3751 15.2423C33.2087 15.1734 33.0304 15.1379 32.8503 15.1379C32.6702 15.1379 32.4919 15.1734 32.3256 15.2423C32.1592 15.3111 32.0081 15.412 31.8809 15.5393L20.5885 26.8087C20.3963 26.9997 20.2653 27.2434 20.2121 27.5088C20.159 27.7743 20.186 28.0495 20.2898 28.2996C20.3936 28.5497 20.5696 28.7633 20.7953 28.9134C21.021 29.0635 21.2863 29.1434 21.5575 29.1427H29.1999V38.7052C29.201 39.0672 29.3456 39.414 29.602 39.6699C29.8585 39.9259 30.206 40.0702 30.5686 40.0713H35.1311C35.4938 40.0702 35.8413 39.9259 36.0977 39.6699C36.3542 39.414 36.4987 39.0672 36.4999 38.7052V29.1427H44.1423C44.4135 29.1434 44.6788 29.0635 44.9045 28.9134C45.1302 28.7633 45.3061 28.5497 45.4099 28.2996C45.5138 28.0495 45.5408 27.7743 45.4876 27.5088C45.4344 27.2434 45.3035 26.9997 45.1113 26.8087ZM62.0151 19.1362C61.89 17.3251 61.3782 15.5617 60.514 13.9643C59.6497 12.3669 58.4531 10.9725 57.0044 9.87476C55.5557 8.77699 53.8885 8.00122 52.1147 7.59952C50.3408 7.19783 48.5014 7.17951 46.7199 7.5458C44.3462 4.57225 41.1738 2.33411 37.5732 1.09281C33.9726 -0.148502 30.0924 -0.341745 26.3859 0.535643C22.6794 1.41303 19.2995 3.32483 16.641 6.04776C13.9825 8.77069 12.1551 12.1923 11.3722 15.9131C7.45144 17.5044 4.20675 20.4064 2.19359 24.1223C0.180434 27.8382 -0.476012 32.1369 0.336625 36.2826C1.14926 40.4284 3.38045 44.1633 6.64825 46.8481C9.91606 49.5328 14.0173 51.0005 18.2499 50.9999H56.5749C60.4544 51.0023 64.2095 49.6342 67.175 47.1378C70.1406 44.6414 72.125 41.178 72.7768 37.3611C73.4285 33.5442 72.7056 29.6203 70.736 26.2845C68.7664 22.9487 65.6764 20.4164 62.0151 19.1362ZM56.5749 45.5356H18.2499C15.0129 45.5462 11.8926 44.3299 9.51952 42.1326C7.14648 39.9353 5.69768 36.9209 5.46592 33.6985C5.23417 30.4761 6.23673 27.2861 8.271 24.7731C10.3053 22.26 13.2196 20.6115 16.4249 20.1605V20.0356C16.4258 16.6611 17.6002 13.3915 19.7476 10.7849C21.895 8.17838 24.8823 6.39651 28.1995 5.74347C31.5167 5.09044 34.9582 5.60673 37.9365 7.20422C40.9148 8.80171 43.2452 11.3814 44.5299 14.5028C45.8419 13.3837 47.5088 12.7648 49.2347 12.7559C50.9606 12.7469 52.6338 13.3486 53.9574 14.4541C55.281 15.5595 56.1694 17.0973 56.4648 18.7944C56.7602 20.4915 56.4436 22.2382 55.5711 23.7244C55.9047 23.6921 56.2397 23.6767 56.5749 23.6784C59.479 23.6784 62.2642 24.8299 64.3177 26.8794C66.3712 28.9289 67.5249 31.7086 67.5249 34.607C67.5249 37.5055 66.3712 40.2852 64.3177 42.3347C62.2642 44.3842 59.479 45.5356 56.5749 45.5356Z" fill="#455A64"/>
</g>
<defs>
<clipPath id="clip0_1302_217">
<rect width="73" height="51" fill="white"/>
</clipPath>
</defs>
</svg>
